<svg width="25" height="24" viewBox="0 0 25 24" fill="none" xmlns="http://www.w3.org/2000/svg">
<g id="vuesax/bold/home-2">
<g id="home-2">
<path id="Vector" d="M20.14 6.82L14.38 2.79C12.81 1.69 10.4 1.75 8.89 2.92L3.88 6.83C2.88 7.61 2.09 9.21 2.09 10.47V17.37C2.09 19.92 4.16 22 6.71 22H17.49C20.04 22 22.11 19.93 22.11 17.38V10.6C22.11 9.25 21.24 7.59 20.14 6.82ZM12.85 18C12.85 18.41 12.51 18.75 12.1 18.75C11.69 18.75 11.35 18.41 11.35 18V15C11.35 14.59 11.69 14.25 12.1 14.25C12.51 14.25 12.85 14.59 12.85 15V18Z" fill="#FF5848"/>
</g>
</g>
</svg>
