<svg width="21" height="22" viewBox="0 0 21 22" fill="none" xmlns="http://www.w3.org/2000/svg">
<path d="M8.30769 19.2147C8.43403 19.726 8.7178 20.1786 9.11454 20.5016C9.51128 20.8247 9.99855 21 10.5 21C11.0014 21 11.4887 20.8247 11.8855 20.5016C12.2822 20.1786 12.566 19.726 12.6923 19.2147M10.5 1C12.1629 1 13.7577 1.69592 14.9336 2.93466C16.1094 4.1734 16.77 5.8535 16.77 7.60534C16.77 14.9497 19.3131 16.3971 20 16.3971H1C1.70154 16.3971 4.23 14.9343 4.23 7.60534C4.23 5.8535 4.89059 4.1734 6.06644 2.93466C7.24229 1.69592 8.83709 1 10.5 1Z" stroke="#484C52" stroke-width="1.5" stroke-linecap="round" stroke-linejoin="round"/>
</svg>
