<svg width="24" height="24" viewBox="0 0 24 24" fill="none" xmlns="http://www.w3.org/2000/svg">
<g id="other">
<path id="Vector" d="M12 6.75C12.6894 6.75 13.3721 6.8858 14.0091 7.14963C14.646 7.41347 15.2248 7.80018 15.7123 8.28769C16.1998 8.7752 16.5865 9.35395 16.8504 9.99091C17.1142 10.6279 17.25 11.3106 17.25 12C17.25 12.6894 17.1142 13.3721 16.8504 14.0091C16.5865 14.646 16.1998 15.2248 15.7123 15.7123C15.2248 16.1998 14.646 16.5865 14.0091 16.8504C13.3721 17.1142 12.6894 17.25 12 17.25V6.75ZM12 6C10.4087 6 8.88258 6.63214 7.75736 7.75736C6.63214 8.88258 6 10.4087 6 12C6 13.5913 6.63214 15.1174 7.75736 16.2426C8.88258 17.3679 10.4087 18 12 18C13.5913 18 15.1174 17.3679 16.2426 16.2426C17.3679 15.1174 18 13.5913 18 12C18 10.4087 17.3679 8.88258 16.2426 7.75736C15.1174 6.63214 13.5913 6 12 6Z" fill="#FF5848"/>
</g>
</svg>
