<svg width="24" height="24" viewBox="0 0 24 24" fill="none" xmlns="http://www.w3.org/2000/svg">
<path d="M12.5478 15.3333H16.8522M12.5478 15.3333L11.4 18M12.5478 15.3333L14.267 11.3393C14.4055 11.0175 14.4748 10.8566 14.5695 10.8057C14.652 10.7615 14.748 10.7615 14.8305 10.8057C14.9252 10.8566 14.9945 11.0175 15.133 11.3393L16.8522 15.3333M16.8522 15.3333L18 18M6 7.33333H9.6M9.6 7.33333H11.7M9.6 7.33333V6M11.7 7.33333H13.2M11.7 7.33333C11.4023 9.30486 10.7116 11.0908 9.69933 12.5896M10.8 13.3333C10.4325 13.1499 10.0576 12.8947 9.69933 12.5896M9.69933 12.5896C8.88781 11.8985 8.16166 10.9511 7.8 10M9.69933 12.5896C8.73652 14.0153 7.48286 15.1812 6 16" stroke="#FC532B" stroke-linecap="round" stroke-linejoin="round"/>
</svg>
